<?xml version="1.0" encoding="UTF-8" standalone="no"?>
<!-- Created with Inkscape (http://www.inkscape.org/) -->

<svg
   width="226.16862mm"
   height="49.890652mm"
   viewBox="0 0 226.16862 49.890652"
   version="1.1"
   id="svg1"
   xml:space="preserve"
   inkscape:version="1.4.2 (f4327f4, 2025-05-13)"
   sodipodi:docname="ibrahem abdelghany.svg"
   xmlns:inkscape="http://www.inkscape.org/namespaces/inkscape"
   xmlns:sodipodi="http://sodipodi.sourceforge.net/DTD/sodipodi-0.dtd"
   xmlns="http://www.w3.org/2000/svg"
   xmlns:svg="http://www.w3.org/2000/svg"><sodipodi:namedview
     id="namedview1"
     pagecolor="#ffffff"
     bordercolor="#666666"
     borderopacity="1.0"
     inkscape:showpageshadow="2"
     inkscape:pageopacity="0.0"
     inkscape:pagecheckerboard="0"
     inkscape:deskcolor="#d1d1d1"
     inkscape:document-units="mm"
     inkscape:zoom="0.7349537"
     inkscape:cx="489.14646"
     inkscape:cy="61.908661"
     inkscape:window-width="1920"
     inkscape:window-height="1027"
     inkscape:window-x="-8"
     inkscape:window-y="-8"
     inkscape:window-maximized="1"
     inkscape:current-layer="layer1" /><defs
     id="defs1" /><g
     inkscape:label="Layer 1"
     inkscape:groupmode="layer"
     id="layer1"
     transform="translate(-35.87528,-103.32332)"><path
       style="fill:#0071e4;fill-opacity:1"
       d="m 46.14109,148.80024 v -4.41371 l 4.290787,0.0427 4.290788,0.0427 0.04268,4.37099 0.04268,4.37099 H 50.474556 46.14109 Z m 10.303332,0.0427 0.04268,-4.37099 4.290787,-0.0427 4.290787,-0.0427 v 4.41371 4.41371 H 60.73521 56.401744 Z m 72.464758,-0.0401 v -4.41109 h 4.33088 4.33089 v 4.41109 4.41109 h -4.33089 -4.33088 z m 41.74237,0.0401 0.0427,-4.37099 4.29079,-0.0427 4.29078,-0.0427 v 4.41371 4.41371 h -4.33346 -4.33347 z m 10.26581,0 0.0427,-4.37099 4.29078,-0.0427 4.29079,-0.0427 v 4.41371 4.41371 h -4.33346 -4.33347 z m 62.07606,0 0.0427,-4.37099 h 4.29079 c 2.35993,0 4.29079,0.0541 4.29079,0.12031 0,0.0662 0,2.03311 0,4.37098 v 4.25069 h -4.33347 -4.33346 z m -82.89201,-5.77452 c -0.042,-0.11027 -0.0578,-9.07882 -0.0351,-19.9301 l 0.0413,-19.7296 h 9.544 9.54399 l 0.0413,10.39485 0.0413,10.39485 0.76074,-0.0488 0.76074,-0.0488 0.0413,-10.38611 0.0413,-10.38611 h 4.32971 4.32972 v 10.42621 10.42621 h 0.80085 0.80085 l 0.0413,-10.38611 0.0413,-10.38611 14.717,-0.0409 14.717,-0.0409 v 14.75794 14.75794 h -25.90513 -25.90513 v 0.88221 0.88222 h 10.34601 10.34601 v 4.33089 4.33089 h -14.68193 c -11.5979,0 -14.69797,-0.0421 -14.75827,-0.20051 z m 10.35221,-24.10059 v -5.2131 h -0.80201 -0.80202 v 5.2131 5.21311 h 0.80202 0.80201 z m 31.11824,0 v -5.2131 h 4.33089 4.33088 v 5.2131 5.21311 h 0.80202 0.80202 v -6.01512 -6.01512 h -5.93492 -5.93493 v 6.01512 6.01512 h 0.80202 0.80202 z m -10.42621,19.97021 v -4.33089 h 20.69122 20.69123 l 0.0409,-15.59921 0.0409,-15.59922 4.37099,-0.0427 4.37099,-0.0427 v 10.42879 10.42879 h 0.80084 0.80085 l 0.0413,-10.38611 0.0413,-10.38611 h 4.2932 4.2932 l -0.001,10.30591 c -6.7e-4,5.66825 -0.002,12.2909 -0.002,14.717 l -0.001,4.41109 h -5.13291 -5.1329 v 5.2131 5.21311 h -25.10311 -25.10311 z m 51.97065,0.002 v -4.32863 l 5.09281,-0.0424 5.0928,-0.0424 0.0409,-15.59922 0.0409,-15.59921 h 4.3301 4.33009 v 19.9702 19.97021 h -9.46379 -9.4638 z M 35.87528,123.16443 v -19.83589 h 4.330083 4.330082 l 0.04091,15.33597 0.04091,15.33598 5.89482,0.0705 5.89482,0.0705 v -0.80974 -0.80974 H 51.273994 46.14109 v -9.6242 -9.62419 h 4.330888 4.330888 v 5.2131 5.21311 h 10.346011 10.346011 v 5.21311 5.2131 h 0.800846 0.800847 l 0.04127,-10.38611 0.04127,-10.38611 9.503894,-0.0414 9.503894,-0.0414 v 9.62547 9.62547 H 91.85602 87.525132 v -5.22149 -5.22149 l -0.842117,0.0485 -0.842117,0.0485 v 5.93492 5.93492 l 5.975022,0.0421 5.975019,0.0421 V 123.13325 112.1363 l -25.985349,0.0473 -25.985351,0.0473 2.2e-5,-4.34503 2.1e-5,-4.34503 5.41361,-0.1059 c 2.977486,-0.0583 16.655875,-0.10602 30.39642,-0.10616 l 24.982808,-2.6e-4 v 19.7296 19.7296 H 86.723117 66.833111 v -5.13291 -5.1329 h -0.882218 -0.882218 v 5.1329 5.13291 h -8.074077 c -4.440743,0 -11.009256,0.0478 -14.596697,0.10629 l -6.522621,0.10629 z m 72.34187,15.29514 v -4.32916 l 5.17301,-0.0423 5.17301,-0.0423 0.0413,-10.38611 0.0413,-10.38611 h 4.32972 4.32971 v 10.42621 10.42621 h 0.80202 0.80202 v -10.42626 -10.42621 h 4.32971 4.32972 l 0.0413,10.38611 0.0413,10.38611 0.76075,0.0488 0.76074,0.0488 0.0413,-10.39485 0.0413,-10.39485 h 9.54399 9.544 v 9.54399 9.544 l -4.37099,0.0427 -4.37099,0.0427 v -5.21569 -5.21568 h -0.80397 -0.80397 l 0.042,5.97502 0.0421,5.97502 5.1329,0.0802 5.13291,0.0802 v 4.25069 4.25069 l -25.06301,0.0406 -25.06302,0.0406 z m 114.04673,-20.37393 v -14.7571 h 4.32923 4.32923 l 0.0418,14.75711 0.0418,14.75711 -4.37099,-1e-5 -4.37099,-1e-5 z m -114.04673,-0.0802 v -14.5165 h 25.10312 25.10311 v 4.33089 4.33089 h -20.77223 -20.77222 v 10.1856 10.18561 h -4.33089 -4.33089 z m -51.703316,3.98335 c -0.05881,-0.0588 -0.106935,-2.04381 -0.106935,-4.41109 v -4.30416 h 4.330888 4.330888 v 4.41109 4.41109 h -4.223952 c -2.323174,0 -4.272074,-0.0481 -4.330889,-0.10693 z m 10.319277,-4.30416 v -4.41109 H 71.164 75.494888 v 4.41109 4.41109 H 71.164 66.833111 Z"
       id="path1" /></g></svg>
